# xmcd
#
# Track frame offsets: 
#        150
#        14815
#        38488
#        57708
#        77226
#        101129
#        121881
#        133364
#        150647
#        165624
#        186126
#
# Disc length: 2773 seconds
#
# Revision: 0
# Processed by: cddbd v1.5.2PL0 Copyright (c) Steve Scherf et al.
# Submitted via: ExactAudioCopy v0.95b4
#
DISCID=980ad30b
DTITLE=RAZA - Panflut vol. 5
DYEAR=2007
DGENRE=Native American
TTITLE0=Acient
TTITLE1=Chiquita
TTITLE2=Time to say good bye
TTITLE3=Hijo de Luna
TTITLE4=Wind of Change
TTITLE5=Casa del sol Naciente
TTITLE6=Luciernaga
TTITLE7=El Condor PAsa
TTITLE8=Sound of Silence
TTITLE9=El Pastor Solitario
TTITLE10=My heart will go on
EXTD=
EXTT0=
EXTT1=
EXTT2=
EXTT3=
EXTT4=
EXTT5=
EXTT6=
EXTT7=
EXTT8=
EXTT9=
EXTT10=
PLAYORDER=
